<?xml version="1.0" encoding="utf-8"?>
<!-- Generator: Adobe Illustrator 17.0.0, SVG Export Plug-In . SVG Version: 6.00 Build 0)  -->
<!DOCTYPE svg PUBLIC "-//W3C//DTD SVG 1.1//EN" "http://www.w3.org/Graphics/SVG/1.1/DTD/svg11.dtd">
<svg version="1.1" id="Calque_1" xmlns="http://www.w3.org/2000/svg" xmlns:xlink="http://www.w3.org/1999/xlink" x="0px" y="0px"
	 width="500px" height="180px" viewBox="0 0 500 180" enable-background="new 0 0 500 180" xml:space="preserve">
<g>
	<path d="M37.922,83.205c1.114-2.042,2.646-4.898,4.597-8.567c1.95-3.667,3.889-7.324,5.816-10.97
		c1.926-3.645,3.448-6.488,4.562-8.532c-0.557-0.185-1.289-0.302-2.194-0.348c-0.905-0.046-1.567-0.185-1.985-0.418
		c-0.975-0.836-1.532-1.741-1.672-2.716c-0.139-0.975-0.325-3.157-0.557-6.547c6.036-1.021,12.189-2.205,18.458-3.552
		c6.269-1.346,11.422-2.495,15.462-3.448c4.04-0.951,7.998-1.729,11.875-2.333c3.876-0.603,7.487-0.905,10.831-0.905
		c3.065,0,6.152,0.278,9.264,0.835c0.139,0.373,0.394,0.917,0.766,1.637c0.371,0.721,1.068,1.846,2.089,3.378
		c0.697,1.486,1.149,2.461,1.358,2.925c0.209,0.464,0.371,1.034,0.487,1.706c0.116,0.674,0.359,1.8,0.731,3.378
		c-9.566,0.511-17.819,1.173-24.761,1.985c-6.942,0.813-12.015,1.602-15.218,2.368c-3.204,0.766-5.015,1.358-5.433,1.776
		c-1.905,2.507-4.609,6.338-8.114,11.492c-3.507,5.154-6.351,9.96-8.532,14.418l29.114-3.274c0.742,0.697,1.195,1.579,1.358,2.647
		c0.162,1.069,0.313,2.136,0.453,3.204c1.95,3.668,3.041,5.944,3.273,6.826l-41.79,7.035l-21.662,45.899
		c-2.879-0.836-5.596-2.379-8.149-4.632c-2.554-2.251-3.831-4.214-3.831-5.885c0.557-1.718,1.114-3.297,1.671-4.736
		s1.254-3.181,2.089-5.225c0.836-2.042,1.776-4.294,2.821-6.756c1.044-2.46,2.124-5.13,3.238-8.01
		c1.068-2.46,1.985-4.388,2.751-5.78c0.766-1.394,1.602-2.81,2.507-4.25c0.905-1.438,1.59-2.6,2.055-3.482
		c0.092-0.139,0.185-0.371,0.279-0.696c0.092-0.324,0.139-0.906,0.139-1.741c0-2.09-0.627-4.458-1.88-7.104
		c0.557-0.139,0.905-0.22,1.044-0.244c0.139-0.023,0.232-0.035,0.279-0.035c-0.186,0.047-0.383,0.094-0.592,0.14
		c-0.209,0.047-0.407,0.093-0.592,0.139L37.922,83.205z"/>
	<path d="M163.292,35.982c0.046,0,0.731-0.162,2.055-0.488c1.323-0.324,2.309-0.487,2.96-0.487c0.65,0,0.975,0.186,0.975,0.557
		l-16.995,101.829c-0.79,0-3.181,0.348-7.174,1.045c-3.994,0.696-6.014,1.068-6.06,1.114c-2.089-4.736-3.134-9.147-3.134-13.233
		c0-2.508,0.313-5.27,0.94-8.289c0.627-3.018,1.682-7.358,3.169-13.024c-3.668,0.558-7.731,1.486-12.189,2.786
		c-4.458,1.301-8.66,2.229-12.606,2.786c-1.114,2.229-2.415,4.632-3.9,7.209c-1.487,2.577-3.482,5.805-5.99,9.681
		c-2.508,3.878-4.98,7.244-7.418,10.1c-2.438,2.855-4.656,4.887-6.652,6.095c-0.417-1.022-1.37-2.252-2.855-3.691
		c-1.486-1.439-2.45-2.449-2.891-3.03c-0.44-0.58-0.662-1.428-0.662-2.542c0-2.554,0.592-5.119,1.776-7.696s3.006-5.839,5.467-9.786
		c2.461-3.946,4.04-6.616,4.736-8.01c0.279-0.418,0.418-0.951,0.418-1.602s-0.151-1.3-0.453-1.95
		c-0.303-0.65-0.708-1.369-1.219-2.159c-0.511-0.789-1.091-1.694-1.741-2.717c2.6-0.464,4.98-0.975,7.139-1.532
		s3.587-0.951,4.284-1.184c0.557-0.975,1.52-2.519,2.891-4.632c1.369-2.112,3.238-4.747,5.606-7.905
		c11.655-14.951,19.629-25.109,23.925-30.472c4.294-5.363,7.766-9.403,10.413-12.119c2.646-2.716,5.711-5.351,9.194-7.905
		c0.418,0,1.52,0.174,3.308,0.522C162.397,35.599,163.292,35.843,163.292,35.982z M151.173,54.509l-25.979,37.959l17.273-2.716
		L151.173,54.509z"/>
	<path d="M173.113,48.241c4.179-2.46,7.975-4.306,11.388-5.537c3.413-1.23,7.557-2.287,12.433-3.169
		c3.667-0.65,7.476-0.975,11.422-0.975c5.525,0,10.936,0.557,16.229,1.671c5.293,1.114,9.925,2.88,13.896,5.293
		c3.97,2.415,6.465,5.41,7.487,8.985c0.789,3.111,1.184,5.875,1.184,8.289c0,9.658-4.272,17.297-12.815,22.915
		c-8.544,5.619-19.34,9.497-32.388,11.632c0.882,1.811,2.728,4.075,5.537,6.792c2.809,2.716,5.862,5.606,9.159,8.671
		c3.296,3.064,6.175,6.153,8.637,9.264c2.46,3.111,4.085,6.223,4.875,9.333c0.279,0.418,0.418,0.905,0.418,1.463
		c0,0.696-0.291,1.532-0.871,2.507c-0.581,0.976-0.94,1.741-1.08,2.299c-0.372,0.976-0.778,2.032-1.219,3.169
		c-0.441,1.139-0.94,2.194-1.497,3.169l-37.402-37.123l-15.253,34.546c-2.693-0.51-5.828-1.647-9.403-3.412
		c-0.511-0.279-1.567-0.638-3.169-1.08c-1.602-0.44-2.496-1.032-2.682-1.776l33.92-76.754c-4.133,0.279-7.512,0.674-10.134,1.184
		c-2.624,0.512-5.932,1.347-9.925,2.507c0.046-1.253,0.267-3.401,0.662-6.442C172.915,52.618,173.113,50.146,173.113,48.241z
		 M209.609,55.833l-13.93,28.975c8.265-2.6,14.174-4.55,17.726-5.851c3.552-1.299,6.872-2.844,9.96-4.632
		c3.087-1.787,5.525-3.935,7.313-6.442c1.787-2.508,2.704-5.293,2.751-8.358c-1.486-2.646-5.666-3.97-12.537-3.97
		c-1.161,0-2.995,0.047-5.502,0.139C212.883,55.787,210.956,55.833,209.609,55.833z"/>
	<path d="M264.702,43.156c3.807-1.16,7.871-2.1,12.189-2.821c4.318-0.719,8.973-1.334,13.964-1.846
		c4.991-0.51,10.204-1.056,15.637-1.637c5.433-0.58,10.865-1.195,16.298-1.846c1.95,0,3.1,0.268,3.448,0.801
		c0.348,0.535,0.801,1.776,1.358,3.727c1.253,0.651,2.077,1.243,2.473,1.776c0.394,0.534,0.776,1.289,1.148,2.264
		c0.371,0.975,0.789,1.695,1.254,2.159c-0.696,0.139-2.949,0.686-6.756,1.637c-3.808,0.952-7.592,1.88-11.354,2.786
		c-3.761,0.905-7.847,1.788-12.258,2.646c-4.412,0.86-8.846,1.637-13.303,2.333l-10.1,20.825l30.646-2.577
		c0.882,0.836,1.323,2.114,1.323,3.831c0,0.651,0.093,1.138,0.279,1.462c0.185,0.418,0.707,1.348,1.566,2.786
		c0.859,1.44,1.289,2.647,1.289,3.622c-7.244,1.997-14.895,3.843-22.95,5.537c-8.056,1.695-14.452,2.542-19.188,2.542
		c-1.904,3.019-3.634,5.735-5.188,8.149c-1.557,2.415-3.169,5.062-4.841,7.94s-3.123,5.77-4.354,8.671
		c-1.23,2.902-2.124,5.701-2.681,8.394c1.95-0.325,4.956-0.882,9.02-1.672c4.063-0.789,7.278-1.404,9.646-1.846
		s5.061-0.824,8.079-1.149c3.018-0.324,5.896-0.487,8.637-0.487c4.828,0,9.055,0.627,12.676,1.88c0.65,1.44,1.011,3.333,1.08,5.677
		c0.069,2.346,0.22,4.052,0.452,5.119l-65.609,10.03c-0.186-3.019-1.417-5.085-3.691-6.199c0.231-5.479,0.998-10.54,2.298-15.184
		c1.299-4.643,2.925-8.881,4.875-12.711c1.95-3.831,4.225-7.836,6.825-12.015s4.202-6.849,4.806-8.01
		c-0.325-1.115-0.895-2.821-1.706-5.12c-0.813-2.298-1.335-3.679-1.567-4.144c1.625-0.463,3.297-0.881,5.015-1.253
		c1.718-0.371,3.135-0.673,4.249-0.906c1.438-2.46,2.495-4.353,3.169-5.676c0.673-1.324,2.368-4.678,5.085-10.064
		c2.716-5.386,4.306-8.498,4.771-9.333c-0.743-0.092-1.393-0.185-1.95-0.278c-0.557-0.093-1.033-0.197-1.428-0.313
		c-0.395-0.115-0.801-0.29-1.219-0.522c-1.254-0.928-2.09-2.147-2.508-3.657C265.19,46.976,264.888,45.2,264.702,43.156z"/>
	<path d="M330.87,75.056c0-3.854,1.846-7.858,5.537-12.015c3.691-4.155,9.542-8.044,17.552-11.667
		c8.01-3.622,18.005-6.314,29.984-8.08c3.204-0.417,5.2-0.626,5.99-0.626c3.761,0,6.778,0.964,9.055,2.89
		c2.274,1.928,4.063,5.12,5.362,9.577c-1.718,3.482-4.69,6.512-8.915,9.089c-4.226,2.577-9.287,4.052-15.184,4.423
		c-0.278-0.511-0.895-1.265-1.846-2.264c-0.952-0.998-1.428-1.846-1.428-2.542c0-1.207,1.091-2.646,3.273-4.318
		c-2.972,0.651-6.176,1.405-9.611,2.264c-3.438,0.86-6.733,1.87-9.891,3.03c-3.158,1.161-5.909,2.682-8.254,4.562
		c-2.345,1.881-3.656,4.075-3.935,6.582c0.557,1.348,2.831,2.462,6.825,3.343c3.993,0.883,8.718,1.95,14.174,3.204
		c5.456,1.253,9.344,2.67,11.667,4.249c6.36,4.365,9.542,9.31,9.542,14.835c0,4.458-2.508,10.448-7.522,17.97
		c-2.646,3.9-7.151,7.836-13.513,11.806c-6.361,3.971-13.407,7.256-21.139,9.855c-7.73,2.601-14.685,3.9-20.86,3.9
		c-4.736,0-8.591-0.766-11.562-2.298c-5.711-2.879-8.567-6.918-8.567-12.119c0-3.157,1.011-6.361,3.03-9.612
		c2.02-3.249,4.794-6.129,8.323-8.636c3.528-2.508,7.267-4.226,11.214-5.154c1.207,0.743,2.03,1.439,2.473,2.089
		c0.44,0.651,0.847,1.719,1.219,3.204c-2.833,1.301-5.271,3.077-7.313,5.328c-2.044,2.253-3.367,4.888-3.97,7.905
		c0.696,1.161,2.368,1.741,5.015,1.741c5.339,0,12.652-1.671,21.939-5.015c3.993-1.207,7.533-2.646,10.622-4.318
		c3.087-1.671,5.711-3.889,7.87-6.651c2.159-2.762,3.424-5.955,3.796-9.577c-0.232-1.393-2.357-2.646-6.373-3.761
		c-4.017-1.114-8.974-2.577-14.87-4.388c-5.897-1.811-10.646-4.179-14.243-7.104C332.738,83.832,330.916,79.932,330.87,75.056z"/>
	<path d="M412.152,75.056c0-3.854,1.846-7.858,5.537-12.015c3.691-4.155,9.542-8.044,17.552-11.667
		c8.01-3.622,18.005-6.314,29.984-8.08c3.204-0.417,5.2-0.626,5.99-0.626c3.761,0,6.778,0.964,9.055,2.89
		c2.274,1.928,4.063,5.12,5.362,9.577c-1.718,3.482-4.69,6.512-8.915,9.089c-4.226,2.577-9.287,4.052-15.184,4.423
		c-0.278-0.511-0.895-1.265-1.846-2.264c-0.952-0.998-1.428-1.846-1.428-2.542c0-1.207,1.091-2.646,3.273-4.318
		c-2.972,0.651-6.176,1.405-9.611,2.264c-3.438,0.86-6.733,1.87-9.891,3.03c-3.158,1.161-5.909,2.682-8.254,4.562
		c-2.345,1.881-3.656,4.075-3.935,6.582c0.557,1.348,2.831,2.462,6.825,3.343c3.993,0.883,8.718,1.95,14.174,3.204
		c5.456,1.253,9.344,2.67,11.667,4.249c6.36,4.365,9.542,9.31,9.542,14.835c0,4.458-2.508,10.448-7.522,17.97
		c-2.646,3.9-7.151,7.836-13.513,11.806c-6.361,3.971-13.407,7.256-21.139,9.855c-7.73,2.601-14.685,3.9-20.86,3.9
		c-4.735,0-8.591-0.766-11.562-2.298c-5.711-2.879-8.567-6.918-8.567-12.119c0-3.157,1.011-6.361,3.03-9.612
		c2.02-3.249,4.794-6.129,8.323-8.636c3.528-2.508,7.267-4.226,11.214-5.154c1.207,0.743,2.03,1.439,2.473,2.089
		c0.44,0.651,0.847,1.719,1.219,3.204c-2.833,1.301-5.271,3.077-7.313,5.328c-2.044,2.253-3.367,4.888-3.97,7.905
		c0.696,1.161,2.368,1.741,5.015,1.741c5.339,0,12.652-1.671,21.939-5.015c3.993-1.207,7.533-2.646,10.622-4.318
		c3.087-1.671,5.711-3.889,7.87-6.651c2.159-2.762,3.424-5.955,3.796-9.577c-0.232-1.393-2.357-2.646-6.373-3.761
		c-4.017-1.114-8.974-2.577-14.87-4.388c-5.897-1.811-10.646-4.179-14.243-7.104C414.021,83.832,412.198,79.932,412.152,75.056z"/>
</g>
</svg>
