<?xml version="1.0" encoding="utf-8"?>
<!-- Generator: Adobe Illustrator 17.0.0, SVG Export Plug-In . SVG Version: 6.00 Build 0)  -->
<!DOCTYPE svg PUBLIC "-//W3C//DTD SVG 1.1//EN" "http://www.w3.org/Graphics/SVG/1.1/DTD/svg11.dtd">
<svg version="1.1" id="Calque_1" xmlns="http://www.w3.org/2000/svg" xmlns:xlink="http://www.w3.org/1999/xlink" x="0px" y="0px"
	 width="100px" height="100px" viewBox="0 0 100 100" enable-background="new 0 0 100 100" xml:space="preserve">
<g>
	<path fill="#222220" d="M73.658,32.366c-5.118-1.558-10.626-1.218-15.513,0.955l-11.309,4.847L35.559,20.2
		c-2.678-4.267-8.328-5.559-12.595-2.882l-0.116,0.073c-4.267,2.678-5.56,8.328-2.882,12.595l18.11,28.856l-13.507,2.118
		c-2.713,0.426-5.014,2.172-6.152,4.673c-1.139,2.5-0.946,5.382,0.514,7.708l0.061,0.097c1.236,1.969,3.259,3.319,5.552,3.704
		l27.965,4.696l4.866,7.754c0.695,1.108,2.157,1.443,3.265,0.747s1.443-2.157,0.747-3.265l-5.432-8.655
		c-0.36-0.573-0.947-0.965-1.614-1.076l-29.014-4.872c-0.96-0.161-1.807-0.726-2.324-1.551l-0.061-0.097
		c-0.62-0.988-0.699-2.165-0.215-3.227c0.484-1.063,1.424-1.776,2.576-1.956l17.053-2.674c0.157-0.024,0.313-0.064,0.466-0.121
		c0.227-0.085,0.435-0.203,0.621-0.347c0.021-0.016,0.04-0.034,0.061-0.051c0.038-0.032,0.076-0.063,0.112-0.097
		c0.031-0.029,0.06-0.061,0.09-0.092c0.022-0.024,0.046-0.046,0.067-0.071c0.032-0.037,0.062-0.076,0.092-0.114
		c0.017-0.021,0.034-0.042,0.05-0.064c0.028-0.039,0.054-0.08,0.08-0.121c0.015-0.024,0.031-0.048,0.045-0.072
		c0.022-0.038,0.041-0.077,0.061-0.116c0.015-0.03,0.031-0.06,0.045-0.09c0.016-0.034,0.029-0.069,0.043-0.104
		c0.015-0.037,0.03-0.074,0.043-0.112c0.01-0.03,0.018-0.062,0.028-0.092c0.013-0.043,0.026-0.086,0.036-0.13
		c0.007-0.029,0.012-0.059,0.018-0.089c0.009-0.045,0.018-0.09,0.024-0.136c0.005-0.035,0.007-0.07,0.01-0.105
		c0.004-0.04,0.008-0.08,0.01-0.121c0.002-0.052,0.001-0.103-0.001-0.155c-0.001-0.025,0-0.049-0.001-0.073
		c-0.013-0.235-0.061-0.47-0.146-0.697c-0.057-0.152-0.129-0.296-0.213-0.43L23.978,27.469c-1.289-2.055-0.667-4.775,1.388-6.065
		l0.116-0.073c2.055-1.29,4.775-0.667,6.065,1.387l12.091,19.265c0.047,0.074,0.097,0.144,0.15,0.211
		c0.554,1.118,1.891,1.623,3.052,1.125l13.186-5.652c0.011-0.004,0.021-0.009,0.031-0.013c7.909-3.526,17.345-0.653,21.948,6.681
		l0.129,0.205c2.13,3.394,3.427,7.3,3.75,11.295l1.12,13.871c0.105,1.304,1.248,2.275,2.551,2.17
		c0.393-0.032,0.755-0.157,1.067-0.353c0.724-0.454,1.176-1.287,1.103-2.198l-1.12-13.871c-0.383-4.751-1.925-9.395-4.459-13.432
		l-0.129-0.205C83.171,37.283,78.782,33.926,73.658,32.366z"/>
</g>
</svg>
