<?xml version="1.0" encoding="utf-8"?>
<!-- Generator: Adobe Illustrator 17.0.0, SVG Export Plug-In . SVG Version: 6.00 Build 0)  -->
<!DOCTYPE svg PUBLIC "-//W3C//DTD SVG 1.1//EN" "http://www.w3.org/Graphics/SVG/1.1/DTD/svg11.dtd">
<svg version="1.1" id="Calque_1" xmlns="http://www.w3.org/2000/svg" xmlns:xlink="http://www.w3.org/1999/xlink" x="0px" y="0px"
	 width="800px" height="600px" viewBox="0 0 800 600" enable-background="new 0 0 800 600" xml:space="preserve">
<g>
	<g>
		<g>
			<g>
				<path d="M637.944,386.94c0,8.168-4.929,14.792-11.011,14.792H168.918c-6.082,0-11.011-6.624-11.011-14.792V93.102
					c0-8.168,4.929-14.79,11.011-14.79h458.015c6.082,0,11.011,6.622,11.011,14.79V386.94z"/>
				<linearGradient id="SVGID_1_" gradientUnits="userSpaceOnUse" x1="526.6754" y1="35.3849" x2="270.4818" y2="429.8885">
					<stop  offset="0.0061" style="stop-color:#F2F2F2"/>
					<stop  offset="0.3645" style="stop-color:#EEEEEE"/>
					<stop  offset="0.7012" style="stop-color:#E3E3E3"/>
					<stop  offset="1" style="stop-color:#D3D2D2"/>
				</linearGradient>
				<rect x="177.042" y="96.065" fill="url(#SVGID_1_)" width="443.072" height="273.143"/>
			</g>
			<g>
				<g>
					<path fill="#5F6767" d="M76.149,406.193c0,0-3.995,7.44,24.385,13.638h594.052c0,0,19.872-1.274,25.107-10.642l0.035-5.131
						L76.149,406.193z"/>
					<linearGradient id="SVGID_2_" gradientUnits="userSpaceOnUse" x1="75.8734" y1="400.444" x2="719.9774" y2="400.444">
						<stop  offset="0" style="stop-color:#999C9D"/>
						<stop  offset="9.591174e-004" style="stop-color:#A5A7A9"/>
						<stop  offset="0.0037" style="stop-color:#C2C3C5"/>
						<stop  offset="0.0067" style="stop-color:#D9D8DA"/>
						<stop  offset="0.0099" style="stop-color:#E9E7EA"/>
						<stop  offset="0.0134" style="stop-color:#F2F0F3"/>
						<stop  offset="0.0183" style="stop-color:#F5F3F6"/>
						<stop  offset="0.0488" style="stop-color:#DFE1E3"/>
						<stop  offset="0.189" style="stop-color:#D1D1D1"/>
						<stop  offset="0.5061" style="stop-color:#E3E5E7"/>
						<stop  offset="0.872" style="stop-color:#D1D1D1"/>
						<stop  offset="0.9512" style="stop-color:#DFE1E3"/>
						<stop  offset="0.9878" style="stop-color:#F5F3F6"/>
						<stop  offset="1" style="stop-color:#999C9D"/>
					</linearGradient>
					<path fill="url(#SVGID_2_)" d="M76.291,391.175h643.647v16.53c0,0,0.961,2.206-6.614,1.655H82.35c0,0-5.927,1.654-6.476-2.204
						L76.291,391.175z"/>
					<path fill="#5F6767" d="M690.038,400.823c0,0.643-0.425,1.161-0.952,1.161h-21.903c-0.526,0-0.951-0.519-0.951-1.161l0,0
						c0-0.643,0.425-1.163,0.951-1.163h21.903C689.613,399.66,690.038,400.18,690.038,400.823L690.038,400.823z"/>
				</g>
				<linearGradient id="SVGID_3_" gradientUnits="userSpaceOnUse" x1="397.9417" y1="400.4328" x2="397.9417" y2="391.3095">
					<stop  offset="0.3415" style="stop-color:#676B6C"/>
					<stop  offset="0.3611" style="stop-color:#707475"/>
					<stop  offset="0.4574" style="stop-color:#989B9C"/>
					<stop  offset="0.5524" style="stop-color:#B7B9BB"/>
					<stop  offset="0.6444" style="stop-color:#CDCFD1"/>
					<stop  offset="0.7321" style="stop-color:#DADDDE"/>
					<stop  offset="0.811" style="stop-color:#DFE1E3"/>
					<stop  offset="0.9817" style="stop-color:#E3E5E7"/>
				</linearGradient>
				<path fill="url(#SVGID_3_)" d="M354.396,391.31c0,0-2.48,8.265,5.787,9.092h74.668c0,0,7.944,1.033,6.89-8.816L354.396,391.31z"
					/>
				<g>
					<linearGradient id="SVGID_4_" gradientUnits="userSpaceOnUse" x1="356.1632" y1="399.6326" x2="356.1632" y2="391.1017">
						<stop  offset="0.0244" style="stop-color:#5F6767"/>
						<stop  offset="0.4756" style="stop-color:#676B6C"/>
						<stop  offset="0.5137" style="stop-color:#717576"/>
						<stop  offset="0.6192" style="stop-color:#878A8B"/>
						<stop  offset="0.7202" style="stop-color:#949899"/>
						<stop  offset="0.811" style="stop-color:#999C9D"/>
					</linearGradient>
					<path fill="url(#SVGID_4_)" d="M354.809,391.3h0.054l0.029-0.194l-0.911-0.004c0,0-2.249,7.177,4.709,8.531
						C352.743,397.893,354.809,391.3,354.809,391.3z"/>
					<linearGradient id="SVGID_5_" gradientUnits="userSpaceOnUse" x1="400.4525" y1="400.0497" x2="400.4525" y2="391.5601">
						<stop  offset="0.0244" style="stop-color:#5F6767"/>
						<stop  offset="0.4756" style="stop-color:#676B6C"/>
						<stop  offset="0.5137" style="stop-color:#717576"/>
						<stop  offset="0.6192" style="stop-color:#878A8B"/>
						<stop  offset="0.7202" style="stop-color:#949899"/>
						<stop  offset="0.811" style="stop-color:#999C9D"/>
					</linearGradient>
					<path fill="url(#SVGID_5_)" d="M442.152,391.564l-0.804-0.004v0.198c0.58,9.304-6.911,8.036-6.911,8.036h-74.668
						c-0.386-0.037-0.738-0.093-1.078-0.161c0.561,0.165,1.189,0.291,1.903,0.357h74.669
						C435.264,399.99,442.979,401.309,442.152,391.564z"/>
					<linearGradient id="SVGID_6_" gradientUnits="userSpaceOnUse" x1="441.343" y1="391.7581" x2="441.343" y2="391.5601">
						<stop  offset="0.0244" style="stop-color:#5F6767"/>
						<stop  offset="0.4756" style="stop-color:#676B6C"/>
						<stop  offset="0.5137" style="stop-color:#717576"/>
						<stop  offset="0.6192" style="stop-color:#878A8B"/>
						<stop  offset="0.7202" style="stop-color:#949899"/>
						<stop  offset="0.811" style="stop-color:#999C9D"/>
					</linearGradient>
					<path fill="url(#SVGID_6_)" d="M441.348,391.758v-0.198h-0.01C441.342,391.628,441.342,391.69,441.348,391.758z"/>
				</g>
			</g>
		</g>
		<linearGradient id="SVGID_7_" gradientUnits="userSpaceOnUse" x1="319.8175" y1="224.0757" x2="638.2043" y2="224.0757">
			<stop  offset="0" style="stop-color:#FFFFFF;stop-opacity:0"/>
			<stop  offset="1" style="stop-color:#FFFFFF"/>
		</linearGradient>
		<path fill="url(#SVGID_7_)" d="M522.597,77.957h98.607c0,0,18.897,0.124,16.844,16.701l-0.598,275.537H319.817"/>
	</g>
	<defs>
		<filter id="Adobe_OpacityMaskFilter" filterUnits="userSpaceOnUse" x="45.057" y="408.466" width="709.875" height="30.327">
			<feColorMatrix  type="matrix" values="1 0 0 0 0  0 1 0 0 0  0 0 1 0 0  0 0 0 1 0"/>
		</filter>
	</defs>
	<mask maskUnits="userSpaceOnUse" x="45.057" y="408.466" width="709.875" height="30.327" id="SVGID_8_">
		<g filter="url(#Adobe_OpacityMaskFilter)">
			
				<radialGradient id="SVGID_9_" cx="394.6367" cy="1045.8207" r="143.0462" gradientTransform="matrix(2.4814 0 0 0.106 -579.2573 312.7731)" gradientUnits="userSpaceOnUse">
				<stop  offset="0" style="stop-color:#FFFFFF"/>
				<stop  offset="1" style="stop-color:#14130A"/>
			</radialGradient>
			<path fill="url(#SVGID_9_)" d="M754.932,423.629c0,8.384-158.909,15.165-354.939,15.165c-196.039,0-354.936-6.781-354.936-15.165
				c0-8.381,158.897-15.163,354.936-15.163C596.023,408.466,754.932,415.248,754.932,423.629z"/>
		</g>
	</mask>
	<linearGradient id="SVGID_10_" gradientUnits="userSpaceOnUse" x1="400.0377" y1="438.7849" x2="399.9515" y2="408.6916">
		<stop  offset="0" style="stop-color:#4D4848"/>
		<stop  offset="0.3539" style="stop-color:#14130A"/>
		<stop  offset="1" style="stop-color:#14130A"/>
	</linearGradient>
	<path opacity="0.33" mask="url(#SVGID_8_)" fill="url(#SVGID_10_)" d="M754.932,423.629c0,8.384-158.909,15.165-354.939,15.165
		c-196.039,0-354.936-6.781-354.936-15.165c0-8.381,158.897-15.163,354.936-15.163C596.023,408.466,754.932,415.248,754.932,423.629
		z"/>
</g>
<radialGradient id="SVGID_11_" cx="397.9996" cy="232.9167" r="184.5174" gradientUnits="userSpaceOnUse">
	<stop  offset="0.0056" style="stop-color:#C4C6C8"/>
	<stop  offset="0.2978" style="stop-color:#BCBEC0"/>
	<stop  offset="0.6573" style="stop-color:#A7A9AC"/>
	<stop  offset="1" style="stop-color:#9B9DA0"/>
</radialGradient>
<rect x="176.166" y="95.5" fill="url(#SVGID_11_)" width="443.667" height="274.833"/>
<g>
	<g opacity="0.25">
		<image overflow="visible" width="394" height="206" xlink:href="98454EE5.png"  transform="matrix(1 0 0 1 212 192)">
		</image>
	</g>
	<linearGradient id="SVGID_12_" gradientUnits="userSpaceOnUse" x1="334.9421" y1="155.4531" x2="432.307" y2="324.094">
		<stop  offset="0" style="stop-color:#FFFFFF"/>
		<stop  offset="0.183" style="stop-color:#FCFCFC;stop-opacity:0.817"/>
		<stop  offset="1" style="stop-color:#F2F2F2;stop-opacity:0"/>
	</linearGradient>
	<polygon opacity="0.2" fill="url(#SVGID_12_)" points="237,212 555,212 555,253.257 237,310.417 	"/>
	<linearGradient id="SVGID_13_" gradientUnits="userSpaceOnUse" x1="236" y1="278" x2="556" y2="278">
		<stop  offset="0" style="stop-color:#FFFFFF"/>
		<stop  offset="0.0241" style="stop-color:#FCFCFC"/>
		<stop  offset="0.476" style="stop-color:#C7C7C7"/>
		<stop  offset="0.815" style="stop-color:#A6A6A6"/>
		<stop  offset="1" style="stop-color:#999999"/>
	</linearGradient>
	<rect x="237" y="212" fill="none" stroke="url(#SVGID_13_)" stroke-width="2" stroke-miterlimit="10" width="318" height="132"/>
	
		<linearGradient id="SVGID_14_" gradientUnits="userSpaceOnUse" x1="628" y1="327.5" x2="948" y2="327.5" gradientTransform="matrix(-1 0 0 -1 1184 606)">
		<stop  offset="0" style="stop-color:#FFFFFF"/>
		<stop  offset="0.2954" style="stop-color:#C9C9C9"/>
		<stop  offset="0.6214" style="stop-color:#949494"/>
		<stop  offset="0.8663" style="stop-color:#737373"/>
		<stop  offset="1" style="stop-color:#666666"/>
	</linearGradient>
	<rect x="237" y="213" fill="none" stroke="url(#SVGID_14_)" stroke-width="2" stroke-miterlimit="10" width="318" height="131"/>
	<linearGradient id="SVGID_15_" gradientUnits="userSpaceOnUse" x1="334.7912" y1="155.5402" x2="432.4579" y2="324.7039">
		<stop  offset="0" style="stop-color:#FFFFFF"/>
		<stop  offset="0.2976" style="stop-color:#F2F2F2;stop-opacity:0.1"/>
	</linearGradient>
	<polygon opacity="0.4" fill="url(#SVGID_15_)" points="237,212 555,212 555,253.954 237,311.114 	"/>
	
		<linearGradient id="SVGID_16_" gradientUnits="userSpaceOnUse" x1="351.0561" y1="-47.0202" x2="403.6964" y2="44.1554" gradientTransform="matrix(-1 0 0 -1 836 338)">
		<stop  offset="0" style="stop-color:#FFFFFF"/>
		<stop  offset="0.3707" style="stop-color:#F2F2F2;stop-opacity:0.1"/>
	</linearGradient>
	<polygon opacity="0.3" fill="url(#SVGID_16_)" points="555,344.573 345.646,343.876 345.646,343.876 555,306.234 	"/>
	
		<radialGradient id="SVGID_17_" cx="337.4327" cy="923.3855" r="46.0868" gradientTransform="matrix(3.1943 0 0 0.4033 -711.9021 -159.8551)" gradientUnits="userSpaceOnUse">
		<stop  offset="0" style="stop-color:#FFFFFF"/>
		<stop  offset="0.0074" style="stop-color:#F6F6F6"/>
		<stop  offset="0.0477" style="stop-color:#C8C8C8"/>
		<stop  offset="0.0931" style="stop-color:#9D9D9D"/>
		<stop  offset="0.1419" style="stop-color:#777777"/>
		<stop  offset="0.195" style="stop-color:#575757"/>
		<stop  offset="0.2537" style="stop-color:#3B3B3B"/>
		<stop  offset="0.32" style="stop-color:#252525"/>
		<stop  offset="0.3974" style="stop-color:#141414"/>
		<stop  offset="0.4931" style="stop-color:#090909"/>
		<stop  offset="0.6274" style="stop-color:#020202"/>
		<stop  offset="1" style="stop-color:#000000"/>
	</radialGradient>
	<ellipse fill="url(#SVGID_17_)" cx="365.959" cy="212.567" rx="147.203" ry="18.591"/>
	
		<radialGradient id="SVGID_18_" cx="324.775" cy="1396.9703" r="40.3234" gradientTransform="matrix(2.0485 0 0 0.3088 -191.3764 -87.7731)" gradientUnits="userSpaceOnUse">
		<stop  offset="0" style="stop-color:#FFFFFF"/>
		<stop  offset="0.0074" style="stop-color:#F6F6F6"/>
		<stop  offset="0.0477" style="stop-color:#C8C8C8"/>
		<stop  offset="0.0931" style="stop-color:#9D9D9D"/>
		<stop  offset="0.1419" style="stop-color:#777777"/>
		<stop  offset="0.195" style="stop-color:#575757"/>
		<stop  offset="0.2537" style="stop-color:#3B3B3B"/>
		<stop  offset="0.32" style="stop-color:#252525"/>
		<stop  offset="0.3974" style="stop-color:#141414"/>
		<stop  offset="0.4931" style="stop-color:#090909"/>
		<stop  offset="0.6274" style="stop-color:#020202"/>
		<stop  offset="1" style="stop-color:#000000"/>
	</radialGradient>
	<ellipse fill="url(#SVGID_18_)" cx="473.925" cy="343.575" rx="82.607" ry="12.451"/>
</g>
<image overflow="visible" width="823" height="442" xlink:href="../../../wamp/www/sweethome/assets/images/ipad/graph2.png"  transform="matrix(0.3641 0 0 0.3641 239 200)">
</image>
<g>
	<path fill="#686868" d="M414.626,117.557c-0.005,0.695-0.013,1.39-0.013,2.085c-0.001,3.27-0.001,6.54-0.001,9.809
		c0,0.145,0,0.29,0,0.494c0.101-0.076,0.169-0.113,0.219-0.167c1.937-2.091,4.377-2.7,7.121-2.424
		c1.423,0.143,2.741,0.568,3.884,1.452c1.403,1.085,2.154,2.558,2.459,4.27c0.115,0.644,0.167,1.308,0.169,1.962
		c0.014,4.307,0.003,8.614,0.015,12.92c0.001,0.358-0.072,0.498-0.46,0.472c-0.568-0.037-1.14-0.009-1.74-0.009
		c0-0.193,0-0.336,0-0.48c0-4.246,0.023-8.492-0.019-12.737c-0.008-0.863-0.153-1.758-0.416-2.58
		c-0.679-2.123-2.278-3.13-4.427-3.36c-1.04-0.111-2.072-0.056-3.076,0.248c-2.092,0.636-3.196,2.134-3.568,4.218
		c-0.113,0.632-0.152,1.284-0.154,1.927c-0.013,4.087-0.007,8.174-0.007,12.262c0,0.146,0,0.292,0,0.47c-0.727,0-1.436,0-2.177,0
		c0-0.189,0-0.358,0-0.526c0-9.931,0-19.863,0-29.794c0-0.171-0.004-0.341-0.006-0.512
		C413.162,117.557,413.894,117.557,414.626,117.557z"/>
	<path fill="#686868" d="M515.584,138.423c-2.878,0.003-5.757,0.007-8.635,0.009c-1.805,0.001-3.61,0-5.416,0
		c-0.143,0-0.285,0-0.448,0c-0.052,1.102,0.063,2.138,0.298,3.16c0.271,1.178,0.732,2.271,1.551,3.185
		c0.936,1.044,2.129,1.606,3.496,1.811c1.607,0.241,3.184,0.16,4.688-0.53c0.842-0.386,1.557-0.951,2.22-1.588
		c0.087-0.084,0.155-0.187,0.257-0.312c0.575,0.453,1.106,0.871,1.672,1.317c-0.646,0.664-1.324,1.246-2.073,1.746
		c-1.31,0.875-2.769,1.308-4.325,1.416c-1.692,0.117-3.365,0.018-4.955-0.651c-2.177-0.916-3.515-2.593-4.276-4.777
		c-0.71-2.037-0.827-4.148-0.736-6.279c0.084-1.966,0.442-3.874,1.389-5.626c1.413-2.615,3.645-3.901,6.591-4.003
		c1.523-0.052,2.991,0.18,4.348,0.906c1.98,1.059,3.144,2.773,3.743,4.879c0.264,0.93,0.362,1.908,0.536,2.865
		c0.021,0.117,0.051,0.233,0.077,0.35C515.584,137.007,515.584,137.715,515.584,138.423z M513.364,136.662
		c-0.062-1.421-0.158-2.636-0.739-3.992c-1.617-3.774-6.556-4.464-9.291-2.029c-1.395,1.242-2.032,2.851-2.178,4.681
		c-0.035,0.442-0.058,0.886-0.087,1.34C505.197,136.662,509.266,136.662,513.364,136.662z"/>
	<path fill="#686868" d="M309.329,125.86c0.174,0,0.283,0,0.391,0c1.733,0,3.465,0.006,5.198-0.006
		c0.269-0.002,0.372,0.08,0.44,0.345c1.132,4.372,2.276,8.742,3.418,13.111c0.033,0.125,0.071,0.248,0.138,0.479
		c0.229-0.684,0.427-1.268,0.62-1.854c1.294-3.931,2.589-7.862,3.876-11.796c0.068-0.208,0.156-0.288,0.381-0.286
		c1.159,0.011,2.318,0.014,3.477-0.001c0.267-0.004,0.378,0.086,0.461,0.336c1.356,4.103,2.722,8.204,4.086,12.304
		c0.13,0.391,0.263,0.782,0.423,1.26c0.06-0.164,0.097-0.245,0.12-0.33c1.147-4.393,2.295-8.786,3.434-13.182
		c0.072-0.279,0.174-0.393,0.487-0.39c1.708,0.018,3.416,0.009,5.124,0.009c0.108,0,0.217,0,0.384,0
		c-0.038,0.173-0.059,0.309-0.099,0.44c-1.911,6.264-3.823,12.527-5.736,18.791c-0.302,0.99-0.618,1.975-0.9,2.971
		c-0.083,0.293-0.215,0.372-0.508,0.368c-1.256-0.017-2.514-0.02-3.77,0.002c-0.347,0.006-0.503-0.094-0.615-0.432
		c-1.458-4.417-2.932-8.829-4.403-13.243c-0.045-0.134-0.098-0.265-0.181-0.489c-0.406,1.213-0.78,2.328-1.151,3.444
		c-1.151,3.453-2.303,6.905-3.445,10.36c-0.085,0.258-0.197,0.362-0.484,0.358c-1.305-0.017-2.611-0.015-3.916-0.001
		c-0.267,0.003-0.383-0.085-0.46-0.337c-2.229-7.287-4.464-14.572-6.698-21.858C309.39,126.133,309.37,126.029,309.329,125.86z"/>
	<path fill="#686868" d="M385.127,141.814c1.13,1.102,2.254,2.197,3.401,3.315c-0.735,0.756-1.516,1.427-2.387,1.992
		c-1.481,0.959-3.127,1.4-4.866,1.512c-1.81,0.117-3.606,0.032-5.354-0.526c-2.521-0.805-4.372-2.401-5.313-4.868
		c-1.497-3.926-1.571-7.936-0.042-11.858c1.454-3.73,4.349-5.586,8.331-5.763c1.718-0.076,3.379,0.175,4.943,0.922
		c2.427,1.16,3.898,3.126,4.714,5.636c0.457,1.404,0.609,2.855,0.636,4.322c0.014,0.777,0.003,1.555,0.003,2.378
		c-4.728,0-9.405,0-14.113,0c-0.04,0.977,0.14,1.861,0.57,2.684c0.821,1.574,2.211,2.238,3.907,2.356
		c2.105,0.147,3.95-0.445,5.436-1.998C385.025,141.884,385.066,141.86,385.127,141.814z M383.612,135.018
		c0.101-1.549-0.608-3.307-1.957-4.114c-1.516-0.907-3.11-0.934-4.604,0.012c-1.465,0.927-1.958,2.403-1.981,4.102
		C377.946,135.018,380.78,135.018,383.612,135.018z"/>
	<path fill="#686868" d="M364.559,138.875c-4.727,0-9.404,0-14.075,0c-0.253,2.467,1.486,4.668,3.885,4.976
		c2.281,0.294,4.313-0.194,5.964-1.888c0.042-0.043,0.094-0.077,0.183-0.148c1.121,1.091,2.243,2.184,3.439,3.348
		c-0.214,0.184-0.423,0.345-0.61,0.528c-2.121,2.071-4.689,2.974-7.624,2.982c-1.708,0.004-3.385-0.146-4.989-0.771
		c-2.768-1.08-4.407-3.161-5.208-5.96c-0.604-2.113-0.7-4.272-0.533-6.451c0.132-1.717,0.511-3.373,1.302-4.912
		c1.485-2.888,3.858-4.515,7.077-4.892c2.139-0.25,4.217-0.017,6.148,0.995c2.469,1.293,3.872,3.415,4.585,6.049
		c0.366,1.352,0.48,2.732,0.457,4.128C364.551,137.506,364.559,138.152,364.559,138.875z M354.756,135.046
		c1.305,0,2.609-0.005,3.914,0.004c0.272,0.002,0.415-0.044,0.352-0.363c-0.056-0.285-0.052-0.582-0.101-0.869
		c-0.515-2.988-3.814-4.544-6.375-2.979c-1.406,0.859-1.977,2.218-2.08,3.817c-0.02,0.311,0.07,0.399,0.376,0.396
		C352.146,135.038,353.451,135.046,354.756,135.046z"/>
	<path fill="#686868" d="M305.985,128.238c-1.178,1.144-2.338,2.271-3.53,3.428c-0.705-0.587-1.584-0.99-2.551-1.188
		c-1.297-0.265-2.61-0.422-3.913-0.104c-0.467,0.114-0.935,0.361-1.317,0.657c-0.891,0.689-0.95,2.697,0.702,3.1
		c0.764,0.187,1.559,0.252,2.344,0.345c1.522,0.18,3.066,0.209,4.545,0.675c3.352,1.057,4.566,3.555,4.395,6.688
		c-0.184,3.367-2.459,5.51-5.746,6.38c-1.887,0.499-3.807,0.508-5.737,0.398c-1.606-0.092-3.166-0.376-4.64-1.049
		c-1.131-0.516-2.123-1.227-2.981-2.081c1.232-1.229,2.445-2.439,3.676-3.668c1.007,0.976,2.254,1.584,3.662,1.844
		c1.584,0.292,3.175,0.391,4.724-0.186c0.76-0.283,1.399-0.735,1.541-1.608c0.214-1.316-0.455-2.175-1.867-2.35
		c-1.45-0.18-2.916-0.25-4.361-0.462c-0.968-0.142-1.951-0.348-2.86-0.699c-1.922-0.743-3.005-2.213-3.295-4.255
		c-0.301-2.122,0.043-4.083,1.498-5.744c1.072-1.224,2.457-1.935,4.002-2.364c1.622-0.45,3.276-0.441,4.936-0.33
		c1.443,0.097,2.852,0.347,4.193,0.91C304.353,126.973,305.213,127.511,305.985,128.238z"/>
	<path fill="#686868" d="M401.379,126.504c1.365,0,2.666,0,3.988,0c0,1.428,0,2.825,0,4.257c-0.135,0.006-0.266,0.017-0.396,0.017
		c-1.074,0.001-2.147,0.007-3.221-0.004c-0.253-0.002-0.372,0.044-0.371,0.336c0.009,3.477,0.005,6.954,0.009,10.431
		c0,0.231,0.026,0.464,0.065,0.691c0.142,0.82,0.703,1.356,1.547,1.4c0.777,0.04,1.557,0.009,2.362,0.009c0,1.626,0,3.18,0,4.751
		c-0.086,0.01-0.169,0.03-0.251,0.029c-1.207-0.014-2.415,0.006-3.62-0.054c-2.936-0.146-5.193-2.232-5.596-5.138
		c-0.057-0.409-0.088-0.825-0.088-1.237c-0.007-3.575-0.004-7.149-0.004-10.724c0-0.489-0.001-0.489-0.501-0.489
		c-0.619,0-1.239,0-1.878,0c0-1.44,0-2.836,0-4.277c0.786,0,1.56,0,2.373,0c0-2.234,0-4.425,0-6.642c1.874,0,3.708,0,5.584,0
		C401.379,122.064,401.379,124.254,401.379,126.504z"/>
	<path fill="#686868" d="M477.216,148.403c-0.742,0-1.432,0-2.177,0c0-0.153,0-0.293,0-0.434c-0.003-4.307,0.001-8.614-0.013-12.921
		c-0.003-0.918-0.166-1.819-0.507-2.679c-0.561-1.412-1.55-2.377-3.01-2.823c-1.547-0.472-3.107-0.471-4.637,0.048
		c-1.949,0.661-2.968,2.128-3.339,4.087c-0.108,0.571-0.153,1.162-0.154,1.744c-0.013,4.173-0.007,8.346-0.007,12.519
		c0,0.144,0,0.287,0,0.476c-0.687,0-1.343,0.006-1.998-0.009c-0.065-0.001-0.154-0.119-0.184-0.2
		c-0.032-0.086-0.009-0.193-0.009-0.29c0-6.625,0-13.251,0-19.876c0-0.5,0-0.5,0.487-0.501c0.558,0,1.116,0,1.703,0
		c0,0.811,0,1.575,0,2.462c1.866-2.101,4.174-2.852,6.812-2.696c2.684,0.158,4.781,1.31,6.079,3.73
		c0.404-0.482,0.76-0.96,1.171-1.387c1.42-1.477,3.197-2.197,5.213-2.337c1.476-0.102,2.926,0.054,4.291,0.676
		c2.363,1.077,3.654,2.959,4.033,5.488c0.102,0.684,0.125,1.384,0.127,2.077c0.011,4.136,0,8.273,0.014,12.409
		c0.001,0.373-0.094,0.493-0.468,0.465c-0.449-0.033-0.904-0.029-1.353-0.001c-0.335,0.021-0.405-0.103-0.404-0.417
		c0.01-3.758,0.007-7.516,0.006-11.274c0-0.683,0.053-1.375-0.034-2.047c-0.105-0.815-0.246-1.646-0.528-2.412
		c-0.531-1.439-1.61-2.361-3.086-2.78c-1.39-0.395-2.796-0.396-4.186-0.002c-2.132,0.604-3.566,2.362-3.768,4.593
		c-0.046,0.509-0.07,1.022-0.071,1.533c-0.006,4.087-0.003,8.175-0.003,12.262C477.216,148.045,477.216,148.203,477.216,148.403z"/>
	<path fill="#686868" d="M436.276,137.96c0.032-1.936,0.168-3.851,0.882-5.678c1.198-3.064,3.998-4.957,7.288-4.989
		c1.913-0.018,3.673,0.401,5.22,1.563c1.67,1.255,2.629,2.961,3.027,4.976c0.588,2.977,0.64,5.969-0.162,8.91
		c-0.874,3.207-2.967,5.226-6.278,5.795c-3.569,0.613-6.909-0.716-8.657-3.905c-0.765-1.395-1.075-2.918-1.21-4.483
		C436.325,139.422,436.312,138.69,436.276,137.96z M450.973,137.99c-0.106-1.188-0.151-2.384-0.328-3.561
		c-0.57-3.785-3.65-5.437-6.527-5.185c-2.391,0.21-4.447,1.777-5.1,4.114c-0.273,0.976-0.392,2.006-0.472,3.021
		c-0.14,1.789-0.095,3.579,0.227,5.355c0.645,3.56,3.582,5.216,6.446,4.992c2.578-0.201,4.637-1.932,5.291-4.517
		C450.859,140.824,450.9,139.413,450.973,137.99z"/>
</g>
</svg>
